<svg xmlns="http://www.w3.org/2000/svg" viewBox="0 0 2340 1560" role="img" aria-labelledby="etitle">
  <title id="etitle">VMS Elements Form Guard - Envato marketplace cover (3:2)</title>
  <defs>
    <linearGradient id="mbg" x1="0%" y1="0%" x2="100%" y2="100%">
      <stop offset="0%" stop-color="#312e81"/>
      <stop offset="40%" stop-color="#4f46e5"/>
      <stop offset="100%" stop-color="#6366f1"/>
    </linearGradient>
    <linearGradient id="mblob" x1="0%" y1="0%" x2="100%" y2="0%">
      <stop offset="0%" stop-color="#06b6d4" stop-opacity="0.28"/>
      <stop offset="100%" stop-color="#a5b4fc" stop-opacity="0.1"/>
    </linearGradient>
    <linearGradient id="mshine" x1="0%" y1="0%" x2="0%" y2="100%">
      <stop offset="0%" stop-color="#ffffff" stop-opacity="0.2"/>
      <stop offset="100%" stop-color="#000000" stop-opacity="0.05"/>
    </linearGradient>
  </defs>
  <rect width="2340" height="1560" fill="url(#mbg)"/>
  <circle cx="1980" cy="280" r="420" fill="url(#mblob)"/>
  <circle cx="320" cy="1320" r="340" fill="#06b6d4" opacity="0.07"/>
  <g transform="translate(110 430) scale(1.35)">
    <rect width="256" height="256" rx="58" fill="#4f46e5"/>
    <rect width="256" height="256" rx="58" fill="url(#mshine)"/>
    <path fill="#ffffff" fill-opacity="0.96" d="M128 52c52 0 78 32 78 72v12c0 40-30 72-78 86-48-14-78-46-78-86v-12c0-40 26-72 78-72z"/>
    <path fill="none" stroke="#06b6d4" stroke-width="12" stroke-linecap="round" stroke-linejoin="round" d="M88 130l32 32 56-64"/>
  </g>
  <text x="520" y="720" fill="#ffffff" font-family="Segoe UI, system-ui, -apple-system, sans-serif" font-size="108" font-weight="700" letter-spacing="-0.02em">VMS Elements Form Guard</text>
  <text x="520" y="840" fill="#c7d2fe" font-family="Segoe UI, system-ui, -apple-system, sans-serif" font-size="48" font-weight="500">WordPress plugin - Email domain validation &amp; spam protection</text>
  <text x="520" y="940" fill="#a5b4fc" font-family="Segoe UI, system-ui, -apple-system, sans-serif" font-size="36" font-weight="400" opacity="0.92">Disposable lists - HTTPS checks - Optional VirusTotal &amp; Google Web Risk</text>
</svg>
